<svg xmlns="http://www.w3.org/2000/svg" width="8" height="8" viewBox="0 0 8 8">
  <path id="Pin" d="M84.417,87.893a.978.978,0,0,0-1.311-.008l-.054.052-2.045,2.146a.94.94,0,0,0,.167,1.439l.059.035,2.1,1.181a.319.319,0,0,1,.12.119l.019.038.773,1.906a.32.32,0,0,0,.212.188.326.326,0,0,0,.28-.052l.034-.03,1.389-1.366,2.125,2.094h.457V95.19l-2.126-2.095,1.376-1.352a.314.314,0,0,0-.067-.5l-.041-.019-1.929-.759a.321.321,0,0,1-.14-.107l-.024-.038-1.183-2.182A.952.952,0,0,0,84.417,87.893Zm-2.94,2.624,2.045-2.147a.325.325,0,0,1,.5.038l.018.03,1.183,2.182a.958.958,0,0,0,.425.4l.069.03,1.476.58-2.53,2.487-.592-1.459a.953.953,0,0,0-.349-.43l-.069-.043-2.1-1.181a.314.314,0,0,1-.12-.432l.021-.031.024-.028,2.045-2.147Z" transform="translate(-80.745 -87.636)" fill="rgba(255,255,255,0.85)"/>
</svg>
