<svg xmlns="http://www.w3.org/2000/svg" width="8" height="8" viewBox="0 0 8 8">
  <path id="setting" d="M80.8,64a4.237,4.237,0,0,1,.618.05c.138.021.275.046.408.079l.133.035.283,1.026c.079.038.157.079.232.123l.112.068,1.054-.274a4.087,4.087,0,0,1,.372.4,4.019,4.019,0,0,1,.354.5,3.965,3.965,0,0,1,.264.545c.051.127.1.254.134.383l.035.129-.774.752.008.127c0,.021,0,.043,0,.064l0,.064-.008.127.774.752a3.869,3.869,0,0,1-.169.512,3.967,3.967,0,0,1-.265.545,4.016,4.016,0,0,1-.353.495c-.087.106-.179.209-.275.3l-.1.094-1.054-.274c-.074.047-.149.091-.227.131l-.118.059-.283,1.026A4.643,4.643,0,0,1,80.8,72a4.234,4.234,0,0,1-.618-.05c-.139-.02-.275-.046-.409-.079l-.132-.035-.283-1.026c-.079-.038-.157-.079-.233-.123l-.112-.068-1.054.274A4.415,4.415,0,0,1,77.234,70a3.971,3.971,0,0,1-.265-.545c-.051-.126-.1-.254-.134-.383l-.035-.129.775-.753-.008-.126q0-.032,0-.064l0-.064.008-.127-.775-.752a3.808,3.808,0,0,1,.787-1.552c.087-.106.178-.208.274-.3l.1-.094,1.054.275c.073-.047.149-.091.226-.131l.118-.06.284-1.026A4.626,4.626,0,0,1,80.8,64Zm0,.575h-.072l-.112,0-.04,0-.095.007L80.4,64.6l-.134.018-.049.007-.1.018-.265.961a2.638,2.638,0,0,0-.306.137l-.116.065-.019.011c-.065.039-.128.08-.189.123l-.09.067-.988-.257-.064.072-.062.076q-.052.065-.1.132l-.054.076-.043.065q-.039.059-.075.12l-.035.061-.052.1-.018.034q-.06.115-.109.235l-.036.09-.032.091.724.7a2.657,2.657,0,0,0-.031.275l0,.127,0,.033a2.4,2.4,0,0,0,.021.278l.013.091-.724.7,0,.015.027.075.036.089c.021.051.043.1.067.152l.041.083.036.069q.033.062.069.123l.037.06.059.092.021.032q.073.108.156.209l.062.076.064.072L79.135,70c.059.046.12.089.182.13l.115.071.019.011a2.667,2.667,0,0,0,.3.149l.1.041.265.961.1.018.1.014c.056.008.113.015.169.019l.134.009.04,0c.048,0,.1,0,.144,0h.072l.112,0,.04,0,.095-.007L81.2,71.4l.085-.011.1-.014.1-.018.265-.961a2.67,2.67,0,0,0,.313-.137l.033-.02a2.757,2.757,0,0,0,.284-.178L82.466,70l.988.257.064-.072.062-.075c.035-.043.069-.087.1-.132l.054-.077.043-.064c.026-.039.051-.079.075-.12l.035-.061.052-.1.018-.034q.021-.041.042-.083l.034-.075.051-.121L84.1,69.2l.032-.09-.724-.7c.012-.072.021-.144.026-.218l.01-.184,0-.073q0-.111-.017-.221l-.015-.109.724-.7-.005-.015c-.009-.025-.018-.05-.027-.075l-.037-.09q-.032-.076-.067-.151l-.021-.042-.057-.111q-.033-.062-.069-.123l-.037-.06-.059-.092-.021-.032-.054-.076q-.049-.067-.1-.133l-.062-.075-.065-.072L82.466,66a2.659,2.659,0,0,0-.275-.189l-.13-.075q-.1-.053-.206-.1l-.106-.042-.265-.961-.1-.018-.05-.007-.049-.007q-.084-.012-.168-.02l-.095-.007-.04,0-.04,0q-.072,0-.144,0Zm0,1.711A1.715,1.715,0,1,1,79.035,68,1.74,1.74,0,0,1,80.8,66.286Zm0,.571A1.143,1.143,0,1,0,81.976,68,1.161,1.161,0,0,0,80.8,66.857Z" transform="translate(-76.8 -64)" fill="rgba(255,255,255,0.85)"/>
</svg>
