<svg xmlns="http://www.w3.org/2000/svg" width="8" height="8" viewBox="0 0 8 8">
  <path id="收缩" d="M67.145,68.55a.286.286,0,0,1,.286.286v1.31a.286.286,0,0,1-.488.2l-.448-.449-2.008,1.992a.286.286,0,1,1-.4-.406L66.091,69.5l-.458-.458a.286.286,0,0,1,.2-.488h1.31Zm4.772-4.491a.286.286,0,0,1,0,.4l-2,2,.459.46a.286.286,0,0,1-.2.487H68.859a.286.286,0,0,1-.286-.286v-1.31a.286.286,0,0,1,.487-.2l.447.446,2.005-2a.286.286,0,0,1,.4,0Z" transform="translate(-64 -63.975)" fill="rgba(255,255,255,0.85)"/>
</svg>
